<?xml version="1.0" encoding="iso-8859-1"?>
<!-- Uploaded to: SVG Repo, www.svgrepo.com, Generator: SVG Repo Mixer Tools -->
<svg fill="#000000" height="800px" width="800px" version="1.1" id="Layer_1" xmlns="http://www.w3.org/2000/svg" xmlns:xlink="http://www.w3.org/1999/xlink" 
	 viewBox="0 0 512.001 512.001" xml:space="preserve">
<g>
	<g>
		<path d="M497.081,14.918C486.538,4.375,471.963-1,457.116,0.154c-41.293,3.224-81.825,12.925-120.471,28.833
			c-36.552,15.045-72.053,35.908-104.793,62.991c-19.69,16.288-37.61,34.159-53.654,53.379
			c-49.801,3.27-97.17,25.123-134.128,62.082c-17.485,17.485-31.766,37.741-42.448,60.206c-3.042,6.399-1.728,14.021,3.282,19.03
			c3.212,3.212,7.496,4.905,11.844,4.905c2.435,0,4.89-0.531,7.186-1.623c26.213-12.464,54.835-18.086,82.382-16.403
			c-1.974,5.837-3.822,11.729-5.533,17.677l-53.489,32.093c-9.344,5.606-10.914,18.51-3.225,26.199l24.703,24.703
			c-7.776,10.173-17.263,24.056-25.316,37.938c-7.169,12.358-12.296,23.132-15.24,32.022c-5.211,15.738-3.861,27.711,4.012,35.583
			c9.307,9.307,22.991,8.183,35.583,4.012c8.889-2.944,19.663-8.071,32.022-15.24c13.882-8.052,27.764-17.539,37.938-25.315
			l24.703,24.703c7.668,7.668,20.571,6.154,26.199-3.225l32.093-53.489c5.948-1.71,11.84-3.559,17.678-5.533
			c1.682,27.546-3.941,56.168-16.403,82.382c-3.043,6.399-1.728,14.021,3.282,19.031c5.011,5.01,12.63,6.324,19.031,3.282
			c22.466-10.682,42.722-24.964,60.206-42.448c36.957-36.957,58.812-84.327,62.082-134.128c19.22-16.043,37.09-33.964,53.379-53.654
			c27.083-32.739,47.944-68.238,62.991-104.791c15.908-38.646,25.608-79.178,28.833-120.471
			C513.005,40.028,507.623,25.46,497.081,14.918z M56.011,244.038c3.698-4.483,7.613-8.792,11.741-12.919
			c23.463-23.463,51.8-39.709,82.152-47.482c-11.881,18.254-22.245,37.446-31.005,57.434
			C98.219,238.633,76.914,239.664,56.011,244.038z M89.417,435.759c-12.792,7.848-21.77,12.214-27.819,14.643
			c2.428-6.049,6.795-15.027,14.643-27.819c5.62-9.161,11.488-17.714,16.447-24.443l21.172,21.172
			C107.131,424.271,98.577,430.14,89.417,435.759z M170.992,429.082l-88.074-88.074l29.601-17.761l76.234,76.234L170.992,429.082z
			 M267.961,455.987c4.375-20.902,5.406-42.209,2.967-62.886c19.988-8.761,39.18-19.124,57.433-31.005
			C318.92,398.964,297.065,431.983,267.961,455.987z M214.73,378.096l-80.827-80.826c26.817-90.166,87.158-166.942,168.793-214.57
			l126.602,126.602C382.817,288.976,306.998,350.654,214.73,378.096z M478.457,52.277c-3.468,44.422-14.886,86.907-32.925,125.898
			L333.825,66.468c38.991-18.039,81.476-29.457,125.898-32.925c5.156-0.406,10.013,1.393,13.677,5.056
			C477.064,42.263,478.86,47.12,478.457,52.277z"/>
	</g>
</g>
<g>
	<g>
		<path d="M340.084,171.916c-26.147-26.148-68.576-26.15-94.724,0c-26.115,26.116-26.115,68.608,0,94.724
			c26.114,26.116,68.608,26.117,94.724,0C366.199,240.525,366.199,198.031,340.084,171.916z M316.403,242.959
			c-13.058,13.057-34.304,13.057-47.363,0c-13.058-13.058-13.058-34.304,0-47.363c13.059-13.06,34.302-13.06,47.362,0
			C329.46,208.654,329.46,229.902,316.403,242.959z"/>
	</g>
</g>
</svg>