<!DOCTYPE svg PUBLIC "-//W3C//DTD SVG 1.1//EN" "http://www.w3.org/Graphics/SVG/1.1/DTD/svg11.dtd">
<!-- Uploaded to: SVG Repo, www.svgrepo.com, Transformed by: SVG Repo Mixer Tools -->
<svg width="800px" height="800px" viewBox="0 0 24 24" fill="none" xmlns="http://www.w3.org/2000/svg">
<g id="SVGRepo_bgCarrier" stroke-width="0"/>
<g id="SVGRepo_tracerCarrier" stroke-linecap="round" stroke-linejoin="round"/>
<g id="SVGRepo_iconCarrier"> <path fill-rule="evenodd" clip-rule="evenodd" d="M4.5 6L5.25 5.25H18L18.75 6V7.5H19.5L20.25 8.25V11.25V12V15.75V18.75L19.5 19.5H5.25L4.5 18.75V8.25V6ZM18.75 15.75H15.75C14.5074 15.75 13.5 14.7426 13.5 13.5C13.5 12.2574 14.5074 11.25 15.75 11.25H18.75V9H18H6V18H18.75V15.75ZM17.25 6.75V7.5H6V6.75H17.25ZM15 13.5C15 13.0858 15.3358 12.75 15.75 12.75H18.75V14.25H15.75C15.3358 14.25 15 13.9142 15 13.5Z" fill="#000000"/> </g>
</svg>